# xmcd
#
# Track frame offsets:
#	150
#	9724
#	29727
#	42349
#	62874
#	79318
#	90796
#	100091
#	109000
#	121279
#	134613
#	153298
#	166302
#	178338
#	188642
#	200076
#	211030
#	229022
#	240765
#
# Disc length: 3369
#
# Revision: 3
# Processed by: cddbd v1.5.1PL0 Copyright (c) Steve Scherf et al.
# Submitted via: EasyCDDAExtractor 5.1.0
# Normalized: r2:DSETVAR1
#
DISCID=f80d2713
DTITLE=Various Artist - Ralph Emery and Friends
DYEAR=2001
DGENRE=Country
TTITLE0=Mel Tillis - I Ain't Never
TTITLE1=Kris Kristofferson - Sunday Mornin' Comin' Down
TTITLE2=Bobby Bare And Kris Kristofferson - Come Sundown
TTITLE3=Lorrie Morgan - Something In Red
TTITLE4=Willie Nelson - Funny How Time Slips Away
TTITLE5=Willie Nelson - Three Days
TTITLE6=Willie Nelson - Hello Walls
TTITLE7=Glen Campbell - It's Only Make Believe
TTITLE8=Glen Campbell - Wichita Lineman
TTITLE9=Mickey Gilley - Don't The Girls All Get Prettier At Closing Time
TTITLE10=Crystal Gayle - Till I Gain Control Again
TTITLE11=Billy Joe Shaver And Bobby Bare - Ride Me Down Easy
TTITLE12=Gene Watson - Fourteen Carat Mind
TTITLE13=Jamie Fricke - Pride
TTITLE14=Mel Tillis - Burning Memories
TTITLE15=B.J. Thomas - Hooked On A Feeling
TTITLE16=Kris Kristofferson - Loving Her Was Easier (Than Anything I'll Ever Do Again)
TTITLE17=Barbara Fairchild - Kid Stuff
TTITLE18=Porter Wagoner - Wake Up, Jacob
EXTD=Total disc time:  (19)   56:07\n© 2001 Coming Home Music\nCatalog:  SHD2303\nprepaid@homemail.com\n
EXTT0=
EXTT1=
EXTT2=
EXTT3=
EXTT4=
EXTT5=
EXTT6=
EXTT7=
EXTT8=
EXTT9=
EXTT10=
EXTT11=
EXTT12=
EXTT13=
EXTT14=
EXTT15=
EXTT16=
EXTT17=
EXTT18=
PLAYORDER=
